<?xml version="1.0" encoding="utf-8"?>
<!-- Generator: Adobe Illustrator 26.0.3, SVG Export Plug-In . SVG Version: 6.00 Build 0)  -->
<svg version="1.0" id="Layer_1" xmlns="http://www.w3.org/2000/svg" xmlns:xlink="http://www.w3.org/1999/xlink" x="0px" y="0px"
	 viewBox="0 0 241.2 165.2" style="enable-background:new 0 0 241.2 165.2;" xml:space="preserve">
<g id="ETH_zurich_logo">
	<g id="ETH_Zurich_short">
		<path d="M142.7,89.7c-1.1,5.5-5.4,5.8-6.2,5.8c-2.4,0-3.8-1.4-3.8-3.7c0-0.7,0.1-1.3,0.2-2l2.6-13.1h-3.1l-2.7,13.4v0.2
			c-0.1,0.6-0.2,1.3-0.2,1.9c-0.2,3.1,2.1,5.8,5.2,6c0,0,0,0,0,0c0.2,0,0.4,0,0.6,0c2.3,0.1,4.6-0.8,6.2-2.5l-0.4,2.2l0,0h3.1
			l4.2-21.3h-3.2L142.7,89.7L142.7,89.7z"/>
		<path d="M163.9,76.4c-2.3-0.1-4.4,0.9-5.9,2.7l0.5-2.4h-3.1l-4.2,21.2l0,0h3.1l2.6-13c0.7-3.3,3.2-5.8,6.1-5.8
			c1.2,0,2.3,0.5,3,1.5l0,0l2.5-2.2l0,0C167.4,77,165.7,76.3,163.9,76.4L163.9,76.4z"/>
		<polygon points="112.5,79.4 112.5,79.4 123.1,79.4 109,95.4 109,95.4 108.5,98 123.5,98 124.1,95.2 112.8,95.2 127,79.3 127,79.3 
			127.5,76.7 113.1,76.7 112.5,79.4 		"/>
		<polygon points="168.9,97.9 168.9,98 172,98 176.3,76.7 173.2,76.7 168.9,97.9 		"/>
		<path d="M211,76.4c-2.3-0.1-4.5,0.8-6.1,2.4l2.4-11.9h-3.1l-6.2,31h3.1l2.6-13c1.1-5.5,5.4-5.8,6.2-5.8c1.9-0.2,3.6,1.2,3.8,3.1
			c0,0.2,0,0.4,0,0.6c0,0.7-0.1,1.3-0.2,2L210.9,98h3.1l2.7-13.4c0.1-0.7,0.2-1.4,0.2-2.1c0.2-3.1-2.2-5.8-5.3-6
			C211.5,76.5,211.2,76.5,211,76.4L211,76.4z"/>
		<path d="M190.4,76.4c-5.6,0-9.6,4-10.9,10.9c-0.2,1.1-0.3,2.2-0.3,3.3c0,4.7,2.9,7.7,7.5,7.7c2.7,0,5.2-1.1,7.1-3l0,0l-1.8-2.2
			l0,0c-1.2,1.5-3.1,2.4-5.1,2.4c-2.2,0-4.6-1.3-4.6-5c0-1.1,0.1-2.1,0.3-3.2c0.3-2.2,1.3-4.4,2.8-6.1c1.2-1.3,2.9-2,4.7-2
			c1.7-0.1,3.3,0.8,4.1,2.3l0,0l2.3-1.9l0,0C195.2,77.5,192.9,76.3,190.4,76.4L190.4,76.4z"/>
		<polygon points="174.4,70.8 177.5,70.8 178.2,66.9 175.1,66.9 174.4,70.8 		"/>
		<polygon points="144.2,70.8 147.3,70.8 148.1,66.9 145,66.9 144.2,70.8 		"/>
		<polygon points="135.9,70.8 139,70.8 139.8,66.9 136.7,66.9 135.9,70.8 		"/>
		<polygon points="94.4,79 87.4,79 89.9,66.9 30.5,66.9 24.3,98 48,98 49.5,90.2 35.5,90.2 36.4,85.9 50.3,85.9 51.8,79 37.8,79 
			38.6,74.7 60.8,74.7 56.1,98 65.8,98 70.5,74.7 78.6,74.7 73.9,98 83.7,98 86,85.9 93,85.9 90.6,98 100.3,98 106.6,66.9 
			96.9,66.9 94.4,79 		"/>
	</g>
</g>
</svg>
