<?xml version="1.0" encoding="utf-8"?>
<!-- Generator: Adobe Illustrator 25.0.1, SVG Export Plug-In . SVG Version: 6.00 Build 0)  -->
<svg version="1.0" id="katman_1" xmlns="http://www.w3.org/2000/svg" xmlns:xlink="http://www.w3.org/1999/xlink" x="0px" y="0px"
	 viewBox="0 0 560 400" style="enable-background:new 0 0 560 400;" xml:space="preserve">
<style type="text/css">
	.st0{fill:#182B49;}
	.st1{fill:#C69214;}
</style>
<g transform="matrix(2.683 0 0 2.683 36.23835 151.929225)">
	<path class="st0" d="M36,1.1c-8.3,0-10.6,5.3-10.6,12.5c0,8.3,3.7,14.2,11.5,14.2c2.9,0,5-0.4,7-1.1v-1.7c-1,0.4-2.4,1-5,1
		c-8.5,0-9.6-7.7-9.6-12.7c0-4,0.5-10.6,6.8-10.6c4.8,0,6.4,3.5,6.9,5.7h1l-0.3-6.1C41.8,1.8,39.2,1.1,36,1.1z M59.4,1.1
		c-4.9,0-8.7,1.9-8.7,6.6c0,2.5,0.8,3.9,2.5,5.2c3.6,2.8,10.1,4,10.1,8.2c0,2.7-2.2,4.9-5.6,4.9c-4.2,0-6-2.4-6.3-4.5h-1l0.3,5.5
		c1,0.2,4,0.7,6.7,0.7c5.3,0,9.6-2.3,9.6-7.3c0-3.7-2.1-5.3-5.1-7.1c-3.4-2-8-3.1-8-6.6c0-2.6,2.3-4.2,4.9-4.2
		c4.2,0,5.7,2.4,6.1,4.5h1l-0.3-5.3C63.7,1.5,62,1.1,59.4,1.1L59.4,1.1z M0.9,1.5v0.8c2.1,0,3.4,0.3,3.4,3.2v12.9
		c0,5.5,1.2,9.4,9.3,9.4c8.1,0,8.9-4,8.9-9.4V5.5c0-2.9,1.2-3.2,3.4-3.2V1.5h-9v0.8c2.1,0,3.4,0.3,3.4,3.2v12.9
		c0,4.6-0.9,7.8-6.5,7.8c-5,0-6-3.9-6-7.8V5.5c0-2.9,1.3-3.2,3.4-3.2V1.5L0.9,1.5L0.9,1.5z M105,1.5v0.8c2.1,0,3.4,0.3,3.4,3.2v17.9
		c0,2.9-1.3,3.2-3.4,3.2v0.8h9.1c6.1,0,13.3-1.4,13.3-12.9c0-11.6-6.8-13-13.3-13L105,1.5z M114.1,3c7.4,0,9.4,4.3,9.4,11.5
		c0,7.8-2.8,11.4-9.4,11.4c-1.9,0-2.2-0.4-2.2-3.3V6.3C111.8,3.3,112.1,3,114.1,3z M132.6,4c-1.1,0-2,0.9-2,2c0,1.1,0.9,2,2,2
		c1.1,0,2-0.9,2-2C134.6,4.9,133.7,4,132.6,4z M165.3,8.3c-2.1,0-2.9,2.4-3.5,3.7c-1.1-0.6-2-0.9-3.6-0.9c-3.3,0-6.5,1-6.5,5.4
		c0,2.9,1.2,4,2,4.6c-0.4,0.4-1.5,1.7-1.5,3c0,1.5,0.9,2.1,1.5,2.5c-1.1,0.6-2.7,1.5-2.7,3.6c0,3.1,3.5,4.4,6.9,4.4
		c4.6,0,8.5-2.2,8.5-6.1c0-3.8-3.8-3.9-5.5-3.9h-4.1c-1.1,0-2.8,0-2.8-1.4c0-0.8,0.4-1.3,0.6-1.6c0.8,0.3,1.8,0.5,3.1,0.5
		c4.1,0,6.3-2,6.3-5.5c0-2.4-1.1-3.7-1.6-4.1c0.2-0.6,0.5-1.6,1.2-1.6c0.4,0,0.7,0.5,1.6,0.5c1,0,1.6-0.6,1.6-1.6
		C166.9,8.9,166.2,8.3,165.3,8.3L165.3,8.3z M74.8,11.2c-2.4,0-5.7,1.1-5.7,3.4c0,0.9,0.7,1.6,1.7,1.6c0.6,0,1.6-0.4,1.6-1.8
		c0-1.1,0.3-2,2.4-2c2.9,0,2.9,2.6,2.9,5v1.3c-2.6,0.2-9.1,0.2-9.1,5.3c0,2.2,1.8,3.9,4.1,3.9c2.4,0,3.8-1,4.9-2.5h0.1
		c0,1.5,0.6,2.5,2.6,2.5c1.2,0,2.1-0.2,2.5-0.3v-0.7c-0.3,0.1-0.6,0.1-0.9,0.1c-1.1,0-1.5-0.4-1.5-1.6v-8.6
		C80.4,13.4,79.5,11.2,74.8,11.2L74.8,11.2z M88.9,11.2L83.5,12v0.6c1,0.1,2.6,0.2,2.6,2.2v9.4c0,2.2-1.2,2.6-2.6,2.6v0.6h7.9v-0.6
		c-1.5,0-2.6-0.3-2.6-2.6V20c0-3.3,2.5-7.2,4.5-7.2c2.3,0,2.3,1.3,2.3,4.3v7.1c0,2.2-1.2,2.6-2.6,2.6v0.6h7.9v-0.6
		c-1.5,0-2.6-0.3-2.6-2.6v-7.9c0-3.2-0.3-5.2-4-5.2c-3.4,0-5,3.3-5.5,4.6h-0.1V11.2z M134.1,11.2l-5.3,0.8v0.6
		c1,0.1,2.6,0.2,2.6,2.2v9.4c0,2.2-1.2,2.6-2.6,2.6v0.6h7.9v-0.6c-1.4,0-2.6-0.3-2.6-2.6L134.1,11.2z M143.8,11.2c-5,0-7,2.8-7,7.8
		c0,5.8,3,8.7,8.4,8.7c2.1,0,3.3-0.3,4.1-0.6V26c-0.7,0.3-1.6,0.4-2.4,0.4c-5.8,0-7.2-5.9-7.2-8.8h10.1v-0.8
		C149.7,12.9,146.9,11.2,143.8,11.2L143.8,11.2z M173.6,11.2c-4.4,0-7.2,3.1-7.2,8.3c0,5.2,2.8,8.3,7.2,8.3c4.4,0,7.2-3.1,7.2-8.3
		C180.9,14.3,178.1,11.2,173.6,11.2z M143.3,12.3c2.7,0,3.3,2.4,3.3,4.2h-7C139.6,15.2,140.7,12.3,143.3,12.3z M157.8,12.3
		c2.5,0,3.4,2.1,3.4,4.7c0,1.8-0.4,4.1-3.3,4.1c-2.5,0-3.4-2.1-3.4-4.8C154.6,14.3,155.1,12.3,157.8,12.3z M173.6,12.3
		c3.5,0,4.1,4.3,4.1,7.2s-0.7,7.1-4.1,7.1c-3.4,0-4.1-4.3-4.1-7.1S170.2,12.3,173.6,12.3z M77.7,19.7v2c0,2.3-1.5,4.5-3.7,4.5
		c-1.2,0-2.4-1.2-2.4-3C71.6,20.1,76,19.8,77.7,19.7z M154.9,27.1h6c1.7,0,3.2,0.6,3.2,2.3c0,2.5-2.9,4.1-6,4.1
		c-3,0-4.8-1.8-4.8-3.8C153.3,28.2,154.2,27.6,154.9,27.1z"/>
	<path class="st1" d="M0.9,33.4v0.9h149.2c-0.3-0.3-0.6-0.6-0.8-0.9H0.9z M166.9,33.4c-0.3,0.3-0.6,0.6-1,0.9h14.7v-0.9H166.9z"/>
</g>
</svg>
